<?xml version="1.0" standalone="no"?>
<!DOCTYPE svg PUBLIC "-//W3C//DTD SVG 20010904//EN"
 "http://www.w3.org/TR/2001/REC-SVG-20010904/DTD/svg10.dtd">
<svg version="1.0" xmlns="http://www.w3.org/2000/svg"
 width="64.000000pt" height="64.000000pt" viewBox="0 0 64.000000 64.000000"
 preserveAspectRatio="xMidYMid meet">

<g transform="translate(0.000000,64.000000) scale(0.100000,-0.100000)"
fill="#faf6f6" stroke="none">
<path d="M500 620 c0 -5 5 -10 10 -10 6 0 10 5 10 10 0 6 -4 10 -10 10 -5 0
-10 -4 -10 -10z"/>
<path d="M430 590 c0 -5 5 -10 10 -10 6 0 10 5 10 10 0 6 -4 10 -10 10 -5 0
-10 -4 -10 -10z"/>
<path d="M480 587 c-49 -25 -56 -70 -21 -127 6 -8 12 -27 16 -42 4 -23 11 -28
35 -28 24 0 31 5 35 28 4 15 10 34 16 42 22 35 28 61 20 83 -17 44 -62 64
-101 44z m65 -32 c14 -13 25 -28 25 -33 0 -19 -42 -62 -60 -62 -18 0 -60 43
-60 62 0 13 47 58 60 58 6 0 22 -11 35 -25z m-15 -130 c0 -8 -9 -15 -20 -15
-11 0 -20 7 -20 15 0 8 9 15 20 15 11 0 20 -7 20 -15z"/>
<path d="M570 590 c0 -5 5 -10 10 -10 6 0 10 5 10 10 0 6 -4 10 -10 10 -5 0
-10 -4 -10 -10z"/>
<path d="M100 400 c0 -100 -4 -149 -14 -168 -7 -15 -17 -37 -20 -49 -6 -20 -4
-23 18 -23 24 0 26 -4 26 -40 0 -38 27 -109 43 -110 13 0 7 37 -8 50 -10 8
-15 29 -14 64 1 28 3 43 6 34 7 -27 21 -21 26 9 l4 28 2 -27 c2 -41 19 -34 24
10 l4 37 1 -37 c2 -44 19 -51 25 -10 2 16 5 9 6 -20 1 -45 12 -61 26 -38 3 6
11 10 16 10 14 0 -19 -60 -37 -67 -14 -5 -20 -43 -6 -43 4 0 22 22 40 48 35
51 35 82 1 82 -10 0 -19 5 -19 10 0 6 27 10 60 10 33 0 60 -4 60 -10 0 -5 -9
-10 -19 -10 -34 0 -34 -31 1 -82 18 -26 36 -48 41 -48 13 0 7 38 -7 43 -18 7
-51 67 -37 67 5 0 13 -4 16 -10 14 -23 25 -7 26 38 1 29 4 36 6 20 6 -40 21
-34 26 10 l4 37 1 -37 c2 -44 19 -51 25 -10 l4 27 2 -27 c1 -31 17 -38 24 -10
3 9 5 -6 6 -34 1 -35 -4 -56 -14 -64 -15 -13 -21 -50 -7 -50 15 1 42 72 42
110 0 36 2 40 26 40 22 0 24 3 18 23 -3 12 -13 34 -20 49 -8 15 -14 50 -14 78
0 27 -4 50 -10 50 -5 0 -10 -20 -10 -45 l0 -45 -190 0 -190 0 0 125 0 125 145
0 c90 0 145 4 145 10 0 6 -58 10 -155 10 l-155 0 0 -140z m413 -167 c2 -10 8
-26 12 -35 10 -26 -13 -23 -57 7 -20 14 -41 25 -46 25 -5 0 -21 -11 -36 -25
-21 -20 -38 -25 -76 -25 -38 0 -55 5 -76 25 -15 14 -31 25 -36 25 -5 0 -26
-11 -46 -25 -44 -30 -67 -33 -57 -7 4 9 10 25 12 35 5 15 23 17 203 17 180 0
198 -2 203 -17z"/>
<path d="M233 417 c-13 -5 -23 -15 -23 -22 0 -15 47 -37 55 -26 3 5 -3 12 -13
16 -16 6 -16 7 1 20 23 17 9 26 -20 12z"/>
<path d="M300 394 c-16 -48 -4 -56 15 -11 18 42 18 47 6 47 -5 0 -15 -16 -21
-36z"/>
<path d="M350 421 c0 -5 8 -12 18 -16 16 -6 16 -7 -2 -21 -27 -19 -12 -30 19
-14 29 16 31 28 8 46 -21 15 -43 18 -43 5z"/>
</g>
</svg>
