<?xml version="1.0" standalone="no"?>
<!DOCTYPE svg PUBLIC "-//W3C//DTD SVG 20010904//EN"
 "http://www.w3.org/TR/2001/REC-SVG-20010904/DTD/svg10.dtd">
<svg version="1.0" xmlns="http://www.w3.org/2000/svg"
 width="64.000000pt" height="64.000000pt" viewBox="0 0 64.000000 64.000000"
 preserveAspectRatio="xMidYMid meet">

<g transform="translate(0.000000,64.000000) scale(0.100000,-0.100000)"
fill="#296DC1" stroke="none">
<path d="M152 578 c-19 -19 -14 -49 11 -76 l22 -25 -22 12 c-12 6 -30 11 -40
10 -10 0 5 -11 32 -24 l50 -23 -80 -4 -80 -3 -3 -94 c-2 -56 1 -98 8 -105 7
-7 10 20 10 87 l0 97 195 0 195 0 0 -97 c0 -75 3 -94 12 -85 15 15 144 16 153
2 3 -6 -3 -10 -14 -10 -29 0 -30 -50 -1 -57 13 -3 20 -14 20 -29 0 -29 -21
-31 -38 -4 -18 29 -76 27 -96 -2 -16 -22 -16 -21 -16 20 0 23 -4 42 -10 42 -5
0 -10 -18 -10 -40 l0 -40 -103 0 c-91 0 -106 2 -122 20 -23 26 -67 26 -90 0
-20 -22 -79 -28 -73 -8 3 7 15 15 29 19 15 4 2 7 -36 7 -33 -1 -51 -3 -40 -5
11 -2 25 -14 30 -26 7 -15 20 -23 41 -25 22 -2 35 -11 42 -27 13 -28 57 -43
81 -28 9 5 20 19 26 31 9 21 17 22 122 22 69 0 113 -4 113 -10 0 -19 40 -50
65 -50 15 0 32 11 46 29 12 16 30 32 40 34 16 4 19 15 19 70 0 58 -3 68 -26
86 -20 16 -26 31 -30 72 -5 60 -13 69 -70 69 -33 0 -43 4 -47 20 -5 18 -14 20
-79 20 l-73 1 45 24 c26 14 37 24 27 25 -10 0 -28 -5 -40 -11 l-22 -12 23 25
c40 43 19 97 -32 84 -17 -4 -29 -19 -42 -53 l-18 -46 -18 44 c-25 58 -57 76
-86 47z m68 -50 c10 -24 17 -44 15 -47 -3 -2 -20 7 -40 20 -40 28 -49 69 -15
69 15 0 27 -12 40 -42z m133 28 c7 -17 -9 -38 -45 -61 -32 -20 -35 -11 -14 40
16 36 49 48 59 21z m212 -176 c4 -6 -13 -10 -44 -10 -28 0 -51 5 -51 10 0 6
20 10 44 10 25 0 48 -4 51 -10z m-1 -52 c11 -44 8 -48 -44 -48 l-50 0 0 35 c0
35 0 35 44 35 37 0 45 -4 50 -22z m56 -118 c0 -5 -4 -10 -10 -10 -5 0 -10 5
-10 10 0 6 5 10 10 10 6 0 10 -4 10 -10z m-421 -60 c25 -13 33 -37 21 -61 -12
-21 -50 -25 -68 -7 -18 18 -15 55 6 67 21 13 20 13 41 1z m362 -9 c21 -16 22
-22 11 -45 -19 -42 -82 -30 -82 15 0 18 25 49 40 49 4 0 18 -8 31 -19z"/>
<path d="M164 119 c-10 -17 13 -36 27 -22 12 12 4 33 -11 33 -5 0 -12 -5 -16
-11z"/>
<path d="M520 109 c0 -24 23 -21 28 4 2 10 -3 17 -12 17 -10 0 -16 -9 -16 -21z"/>
<path d="M110 314 c0 -34 4 -53 10 -49 6 3 10 15 10 25 0 10 8 21 18 23 16 4
16 5 0 6 -25 1 -22 31 3 31 11 0 17 5 14 10 -3 6 -17 10 -31 10 -23 0 -24 -3
-24 -56z"/>
<path d="M187 363 c-10 -10 -8 -91 2 -97 5 -3 12 4 15 17 l6 22 18 -24 19 -23
0 46 c1 35 -3 49 -17 56 -22 12 -34 13 -43 3z m46 -19 c9 -10 -4 -34 -19 -34
-8 0 -14 9 -14 20 0 19 19 27 33 14z"/>
<path d="M270 315 c0 -52 1 -55 24 -55 14 0 28 4 31 10 3 6 -3 10 -14 10 -25
0 -28 27 -3 33 16 4 16 5 0 6 -25 1 -22 31 3 31 11 0 17 5 14 10 -3 6 -17 10
-31 10 -23 0 -24 -3 -24 -55z"/>
<path d="M344 356 c-3 -8 -4 -31 -2 -52 3 -34 6 -39 31 -42 15 -2 27 1 27 7 0
6 -9 11 -20 11 -22 0 -28 25 -7 33 10 4 10 6 0 6 -22 2 -14 31 7 31 11 0 20 5
20 10 0 15 -50 12 -56 -4z"/>
<path d="M25 210 c-4 -6 22 -10 70 -10 48 0 74 4 70 10 -3 6 -35 10 -70 10
-35 0 -67 -4 -70 -10z"/>
<path d="M297 163 c24 -2 62 -2 86 0 23 2 4 4 -43 4 -47 0 -66 -2 -43 -4z"/>
</g>
</svg>
