<?xml version="1.0" standalone="no"?>
<!DOCTYPE svg PUBLIC "-//W3C//DTD SVG 20010904//EN"
 "http://www.w3.org/TR/2001/REC-SVG-20010904/DTD/svg10.dtd">
<svg version="1.0" xmlns="http://www.w3.org/2000/svg"
 width="32.000000pt" height="32.000000pt" viewBox="0 0 32.000000 32.000000"
 preserveAspectRatio="xMidYMid meet">

<g transform="translate(0.000000,32.000000) scale(0.100000,-0.100000)"
fill="#296dc1" stroke="none">
<path d="M27 292 c-23 -25 -22 -85 1 -105 25 -23 85 -22 105 1 23 25 22 85 -1
105 -25 23 -85 22 -105 -1z"/>
<path d="M187 292 c-23 -25 -22 -85 1 -105 25 -23 85 -22 105 1 23 25 22 85
-1 105 -25 23 -85 22 -105 -1z"/>
<path d="M27 132 c-23 -25 -22 -85 1 -105 25 -23 85 -22 105 1 23 25 22 85 -1
105 -25 23 -85 22 -105 -1z"/>
<path d="M187 132 c-23 -25 -22 -85 1 -105 25 -23 85 -22 105 1 23 25 22 85
-1 105 -25 23 -85 22 -105 -1z"/>
</g>
</svg>
