<?xml version="1.0" standalone="no"?>
<!DOCTYPE svg PUBLIC "-//W3C//DTD SVG 20010904//EN"
 "http://www.w3.org/TR/2001/REC-SVG-20010904/DTD/svg10.dtd">
<svg version="1.0" xmlns="http://www.w3.org/2000/svg"
 width="64.000000pt" height="64.000000pt" viewBox="0 0 64.000000 64.000000"
 preserveAspectRatio="xMidYMid meet">

<g transform="translate(0.000000,64.000000) scale(0.100000,-0.100000)"
fill="#faf6f6" stroke="none">
<path d="M52 538 c-8 -8 -12 -65 -12 -190 0 -171 -1 -178 -20 -178 -26 0 -27
-40 -2 -63 16 -15 46 -17 210 -17 119 0 192 4 192 10 0 6 -77 11 -197 12 -179
3 -198 5 -201 21 -3 15 7 17 111 17 93 0 116 -3 121 -15 8 -21 124 -21 132 0
5 12 28 15 121 15 104 0 114 -2 111 -18 -3 -14 -16 -17 -86 -20 -105 -4 -108
-22 -4 -22 64 0 82 4 95 18 24 26 22 62 -3 62 -19 0 -20 7 -20 171 0 98 -4
178 -10 190 -10 18 -24 19 -268 19 -187 0 -261 -3 -270 -12z m526 -190 l2
-178 -260 0 -260 0 0 180 0 180 258 -2 257 -3 3 -177z m-230 -205 c-16 -2 -40
-2 -55 0 -16 2 -3 4 27 4 30 0 43 -2 28 -4z"/>
<path d="M80 355 l0 -165 240 0 240 0 0 165 0 165 -190 0 c-120 0 -190 -4
-190 -10 0 -6 67 -10 180 -10 l180 0 0 -145 0 -145 -225 0 -226 0 3 143 3 142
28 3 c36 4 25 22 -14 22 l-29 0 0 -165z"/>
</g>
</svg>
