<?xml version="1.0" standalone="no"?>
<!DOCTYPE svg PUBLIC "-//W3C//DTD SVG 20010904//EN"
 "http://www.w3.org/TR/2001/REC-SVG-20010904/DTD/svg10.dtd">
<svg version="1.0" xmlns="http://www.w3.org/2000/svg"
 width="64.000000pt" height="64.000000pt" viewBox="0 0 64.000000 64.000000"
 preserveAspectRatio="xMidYMid meet">

<g transform="translate(0.000000,64.000000) scale(0.100000,-0.100000)"
fill="#faf6f6" stroke="none">
<path d="M180 621 c-5 -11 -10 -35 -10 -55 0 -30 -3 -35 -27 -38 -22 -2 -29
-9 -31 -30 -3 -25 -7 -28 -41 -28 -88 0 -95 -62 -7 -68 41 -3 46 -6 46 -27 0
-22 -5 -24 -52 -27 -49 -3 -53 -5 -53 -28 0 -23 4 -25 53 -28 48 -3 52 -5 52
-28 0 -22 -4 -24 -43 -24 -43 0 -67 -13 -67 -37 0 -16 37 -36 52 -27 7 5 4 10
-10 15 -37 14 -25 29 23 29 32 0 45 -4 45 -14 0 -8 -6 -17 -12 -19 -10 -4 -10
-8 -2 -14 7 -4 14 -19 15 -33 3 -19 11 -26 32 -28 24 -3 27 -7 27 -41 0 -88
62 -95 68 -7 3 41 6 46 27 46 22 0 24 -5 27 -53 3 -48 5 -52 28 -52 23 0 25 4
28 53 3 47 5 52 27 52 21 0 24 -5 27 -46 6 -88 68 -81 68 7 0 34 3 38 28 41
21 2 28 9 30 31 3 24 7 27 41 27 88 0 95 62 7 68 -41 3 -46 6 -46 27 0 22 5
24 53 27 48 3 52 5 52 28 0 23 -4 25 -52 28 -49 3 -53 5 -53 28 0 22 4 24 43
24 43 0 67 13 67 37 0 16 -37 36 -52 27 -7 -5 -4 -10 10 -15 37 -14 25 -29
-23 -29 -32 0 -45 4 -45 14 0 8 6 17 13 19 9 4 9 8 1 14 -7 4 -14 19 -15 33
-3 19 -11 26 -31 28 -25 3 -28 7 -28 41 0 88 -62 95 -68 7 -3 -41 -6 -46 -27
-46 -22 0 -24 5 -27 53 -3 48 -5 52 -28 52 -23 0 -25 -4 -28 -52 -3 -49 -5
-53 -28 -53 -22 0 -24 4 -24 43 0 62 -37 91 -60 48z m40 -46 c0 -33 -4 -45
-15 -45 -11 0 -15 11 -15 38 0 21 3 42 7 45 16 16 23 4 23 -38z m110 0 c0 -25
-4 -45 -10 -45 -5 0 -10 20 -10 45 0 25 5 45 10 45 6 0 10 -20 10 -45z m118
-3 c2 -33 0 -42 -12 -42 -12 0 -16 11 -16 46 0 59 24 55 28 -4z m62 -252 l0
-190 -190 0 -190 0 0 190 0 190 190 0 190 0 0 -190z m-400 115 c0 -11 -12 -15
-45 -15 -42 0 -54 7 -38 23 3 4 24 7 45 7 27 0 38 -4 38 -15z m0 -115 c0 -5
-20 -10 -45 -10 -25 0 -45 5 -45 10 0 6 20 10 45 10 25 0 45 -4 45 -10z m510
0 c0 -5 -20 -10 -45 -10 -25 0 -45 5 -45 10 0 6 20 10 45 10 25 0 45 -4 45
-10z m-2 -112 c-3 -7 -23 -14 -46 -16 -33 -2 -42 0 -42 12 0 12 11 16 46 16
32 0 44 -4 42 -12z m-398 -144 c0 -59 -24 -55 -28 4 -2 33 0 42 12 42 12 0 16
-11 16 -46z m110 1 c0 -25 -4 -45 -10 -45 -5 0 -10 20 -10 45 0 25 5 45 10 45
6 0 10 -20 10 -45z m118 3 c-4 -59 -28 -63 -28 -4 0 35 4 46 16 46 12 0 14 -9
12 -42z"/>
<path d="M164 467 c-2 -7 -3 -78 -2 -157 l3 -145 155 0 155 0 3 43 c2 25 -1
42 -7 42 -6 0 -11 -16 -11 -35 l0 -35 -60 0 -60 0 0 48 c0 49 -20 82 -48 82
-7 0 -21 5 -31 12 -24 15 -51 4 -51 -21 0 -29 34 -45 54 -25 31 30 51 14 54
-44 l3 -52 -70 0 -71 0 0 140 0 140 60 0 60 0 0 -48 c0 -49 20 -82 48 -82 7 0
21 -5 31 -12 24 -15 51 -4 51 21 0 29 -34 45 -54 25 -31 -30 -51 -14 -54 44
l-3 52 70 0 71 0 0 -90 c0 -55 4 -90 10 -90 7 0 10 35 8 98 l-3 97 -153 3
c-119 2 -154 0 -158 -11z m246 -128 c0 -5 -7 -9 -15 -9 -15 0 -20 12 -9 23 8
8 24 -1 24 -14z m-152 -40 c-2 -6 -8 -10 -13 -10 -5 0 -11 4 -13 10 -2 6 4 11
13 11 9 0 15 -5 13 -11z"/>
</g>
</svg>
