<?xml version="1.0" standalone="no"?>
<!DOCTYPE svg PUBLIC "-//W3C//DTD SVG 20010904//EN"
 "http://www.w3.org/TR/2001/REC-SVG-20010904/DTD/svg10.dtd">
<svg version="1.0" xmlns="http://www.w3.org/2000/svg"
 width="512.000000pt" height="512.000000pt" viewBox="0 0 512.000000 512.000000"
 preserveAspectRatio="xMidYMid meet">

<g transform="translate(0.000000,512.000000) scale(0.100000,-0.100000)"
fill="#000000" stroke="none">
<path d="M1843 4123 c-81 -63 -149 -116 -150 -117 -3 -3 568 -731 576 -734 9
-3 295 221 293 231 0 4 -129 172 -286 372 l-284 364 -149 -116z"/>
<path d="M1497 3813 c-135 -268 -169 -594 -97 -926 111 -511 534 -1109 1013
-1430 175 -117 424 -218 621 -252 155 -26 444 -15 545 22 19 8 -5 42 -268 378
l-289 371 -69 22 c-154 49 -321 153 -457 283 -220 209 -349 479 -382 794 l-7
70 -245 315 c-135 173 -265 339 -289 368 l-42 53 -34 -68z"/>
<path d="M3331 2216 c-79 -62 -142 -117 -141 -122 3 -11 557 -721 568 -727 5
-4 261 188 294 221 7 7 -555 735 -570 739 -4 1 -72 -49 -151 -111z"/>
</g>
</svg>
