<?xml version="1.0" standalone="no"?>
<!DOCTYPE svg PUBLIC "-//W3C//DTD SVG 20010904//EN"
 "http://www.w3.org/TR/2001/REC-SVG-20010904/DTD/svg10.dtd">
<svg version="1.0" xmlns="http://www.w3.org/2000/svg"
 width="64.000000pt" height="64.000000pt" viewBox="0 0 64.000000 64.000000"
 preserveAspectRatio="xMidYMid meet">

<g transform="translate(0.000000,64.000000) scale(0.100000,-0.100000)"
fill="#296DC1" stroke="none">
<path d="M200 571 c-146 -52 -221 -233 -151 -368 24 -48 87 -107 138 -129 59
-26 158 -24 216 4 31 16 47 30 47 43 0 24 3 24 -62 -6 -95 -44 -185 -29 -258
45 -115 115 -83 297 64 366 68 32 128 31 195 -2 54 -27 106 -85 117 -131 9
-35 -1 -38 -41 -13 -34 21 -65 21 -65 0 0 -8 129 -80 145 -80 10 0 76 141 70
150 -11 18 -25 10 -44 -27 l-19 -38 -15 37 c-53 127 -207 195 -337 149z"/>
<path d="M260 430 c0 -11 -4 -20 -9 -20 -18 0 -41 -31 -41 -55 0 -32 25 -55
61 -55 45 0 38 -28 -8 -32 -43 -3 -58 -32 -23 -41 11 -3 20 -12 20 -21 0 -9 7
-16 15 -16 8 0 15 9 15 20 0 11 4 20 9 20 18 0 41 31 41 54 0 30 -30 56 -63
56 -43 0 -34 28 10 32 27 2 39 8 41 21 2 12 -3 17 -17 17 -14 0 -21 6 -21 20
0 11 -7 20 -15 20 -8 0 -15 -9 -15 -20z"/>
</g>
</svg>
