<?xml version="1.0" standalone="no"?>
<!DOCTYPE svg PUBLIC "-//W3C//DTD SVG 20010904//EN"
 "http://www.w3.org/TR/2001/REC-SVG-20010904/DTD/svg10.dtd">
<svg version="1.0" xmlns="http://www.w3.org/2000/svg"
 width="64.000000pt" height="64.000000pt" viewBox="0 0 64.000000 64.000000"
 preserveAspectRatio="xMidYMid meet">

<g transform="translate(0.000000,64.000000) scale(0.100000,-0.100000)"
fill="#faf6f6" stroke="none">
<path d="M2 370 l3 -200 47 -47 48 -48 58 58 c65 64 102 75 102 31 0 -17 -6
-28 -20 -31 -14 -4 -20 -14 -20 -34 l0 -29 100 0 100 0 0 29 c0 20 -6 30 -20
34 -14 3 -20 14 -20 31 l0 26 130 0 130 0 0 190 0 190 -321 0 -320 0 3 -200z
m618 10 l0 -170 -191 0 c-124 0 -188 3 -184 10 4 6 75 10 181 10 l174 0 0 150
0 150 -280 0 -281 0 2 -157 c0 -106 -3 -159 -10 -161 -8 -3 -11 48 -11 167 l0
171 300 0 300 0 0 -170z m-40 0 l0 -130 -163 0 -163 0 -44 45 -44 45 -46 -45
c-25 -25 -49 -45 -53 -45 -4 0 -7 59 -7 130 l0 130 260 0 260 0 0 -130z m-412
-207 l-68 -67 -35 34 -35 34 67 68 68 68 35 -35 35 -35 -67 -67z m194 -13 c4
-30 4 -30 -42 -30 -46 0 -46 0 -42 30 4 27 8 30 42 30 34 0 38 -3 42 -30z m38
-60 c0 -6 -33 -10 -80 -10 -47 0 -80 4 -80 10 0 6 33 10 80 10 47 0 80 -4 80
-10z"/>
<path d="M220 480 c0 -5 10 -10 23 -10 69 -1 144 -67 168 -147 14 -50 34 -58
24 -10 -13 63 -56 120 -114 150 -55 27 -101 35 -101 17z"/>
<path d="M220 423 c0 -6 13 -13 29 -16 40 -8 88 -52 101 -92 14 -41 33 -47 24
-7 -7 34 -33 70 -65 94 -28 21 -89 35 -89 21z"/>
<path d="M227 363 c-4 -4 6 -12 23 -19 16 -7 35 -24 42 -39 6 -14 15 -25 20
-25 22 0 -12 59 -43 76 -32 16 -33 16 -42 7z"/>
<path d="M155 271 c-3 -5 -1 -12 5 -16 5 -3 10 1 10 9 0 18 -6 21 -15 7z"/>
<path d="M125 240 c-3 -5 -1 -10 4 -10 6 0 11 5 11 10 0 6 -2 10 -4 10 -3 0
-8 -4 -11 -10z"/>
<path d="M180 240 c0 -5 5 -10 10 -10 6 0 10 5 10 10 0 6 -4 10 -10 10 -5 0
-10 -4 -10 -10z"/>
<path d="M95 210 c-3 -5 1 -10 10 -10 9 0 13 5 10 10 -3 6 -8 10 -10 10 -2 0
-7 -4 -10 -10z"/>
<path d="M150 210 c0 -5 5 -10 10 -10 6 0 10 5 10 10 0 6 -4 10 -10 10 -5 0
-10 -4 -10 -10z"/>
<path d="M70 180 c0 -5 5 -10 10 -10 6 0 10 5 10 10 0 6 -4 10 -10 10 -5 0
-10 -4 -10 -10z"/>
<path d="M120 180 c0 -5 5 -10 10 -10 6 0 10 5 10 10 0 6 -4 10 -10 10 -5 0
-10 -4 -10 -10z"/>
<path d="M95 150 c4 -6 11 -8 16 -5 14 9 11 15 -7 15 -8 0 -12 -5 -9 -10z"/>
</g>
</svg>
