<?xml version="1.0" standalone="no"?>
<!DOCTYPE svg PUBLIC "-//W3C//DTD SVG 20010904//EN"
 "http://www.w3.org/TR/2001/REC-SVG-20010904/DTD/svg10.dtd">
<svg version="1.0" xmlns="http://www.w3.org/2000/svg"
 width="64.000000pt" height="64.000000pt" viewBox="0 0 64.000000 64.000000"
 preserveAspectRatio="xMidYMid meet">

<g transform="translate(0.000000,64.000000) scale(0.100000,-0.100000)"
fill="#296DC1" stroke="none">
<path d="M400 566 l-75 -33 -3 -54 c-8 -118 34 -204 124 -259 39 -25 53 -20
120 42 52 48 74 109 74 205 l0 64 -63 28 c-94 42 -96 42 -177 7z m155 -97 c8
-12 -33 -74 -71 -110 l-26 -24 -29 35 c-16 19 -29 40 -29 47 0 23 22 25 44 4
l22 -21 33 40 c33 41 45 48 56 29z"/>
<path d="M12 468 c-7 -7 -12 -34 -12 -60 l0 -48 143 0 142 0 -3 60 -4 60 -127
0 c-85 0 -131 -4 -139 -12z"/>
<path d="M0 172 c0 -71 4 -112 12 -120 17 -17 599 -17 616 0 8 8 12 49 12 117
l0 105 -37 -35 c-54 -51 -98 -79 -123 -79 -25 0 -92 44 -134 89 l-30 31 -158
0 -158 0 0 -108z m195 8 c0 -11 -13 -16 -49 -18 -50 -3 -74 7 -61 28 11 17
110 9 110 -10z"/>
</g>
</svg>
